<svg width="200" height="200" viewBox="0 0 200 200" fill="none" xmlns="http://www.w3.org/2000/svg">
<rect x="30" y="29" width="147" height="147" rx="73.5" fill="#DEDEDE"/>
<rect x="7" y="145" width="39" height="39" rx="19.5" fill="#FFCEBC"/>
<g clip-path="url(#clip0_303_529)">
<path d="M63.3333 139.856C75.5553 148.745 87.778 155.856 100 155.856C112.222 155.856 124.445 148.745 136.667 139.856C126.592 136.789 121.481 132.212 121.333 126.123C121.333 125.037 121.341 123.496 121.349 120.602C121.349 120.142 121.35 119.672 121.352 119.19C121.372 111.43 121.405 101.19 121.451 90.79C131.005 78.4054 127.495 63.886 124.501 64.248C120.831 64.6947 89.0287 34.516 82.9287 32.9687C76.8287 31.4214 61.3333 36.4167 58.6667 50.3334C56 64.25 54.8853 99.3287 65 113.333C67.8782 117.319 72.4116 118.878 78.6 118.01C78.6087 120.923 78.626 122.557 78.6667 125.856C78.5873 132.222 73.4767 136.793 63.3333 139.856Z" fill="url(#paint0_linear_303_529)"/>
<path d="M78.6667 118C93.3334 116.333 102.667 110 102.667 110C102.667 110 92.0001 123.333 78.6667 126V118Z" fill="#FC9F6A"/>
<path d="M154 91C163 81.8752 172.252 55.2576 167.5 36.5C158 -0.999866 93.1667 0.500212 73.5001 6.50021C60.2821 10.5329 47.0001 21.5 45 25.0002C36.0559 40.6526 47.0108 54.3335 55.8001 57.4555C63.7775 60.2888 77.2668 63.1221 100.204 60.4555C104.301 59.9788 103.443 72.5275 105.633 73.8842C108.917 75.9195 111.467 63.1221 120.472 66.9648C129.477 70.8075 124.133 88.6248 114.467 88.6248C111.133 88.6248 109.467 97.7895 118.467 102.123C125 105.333 145.5 98 154 91Z" fill="url(#paint1_linear_303_529)"/>
<path d="M170 160.205C176.347 173.11 180 202.872 180 202.872H20C20 202.872 23.6547 173.107 30 160.205C36.3453 147.304 73.4 135.338 73.4 135.338C93.8753 143.333 106.405 143.333 126.581 135.333C126.581 135.333 163.653 147.301 170 160.205Z" fill="url(#paint2_linear_303_529)"/>
<path d="M100 136.661L93.3334 148.667L72.6667 136L78.6667 127.333L100 135.214L121.333 127.333L127.333 136L106.667 148.667L100 136.661Z" fill="white"/>
</g>
<defs>
<linearGradient id="paint0_linear_303_529" x1="96.7478" y1="32.6981" x2="96.7478" y2="155.856" gradientUnits="userSpaceOnUse">
<stop stop-color="#F7B186"/>
<stop offset="1" stop-color="#FFC299"/>
</linearGradient>
<linearGradient id="paint1_linear_303_529" x1="92.9604" y1="22.2586" x2="92.9604" y2="102.912" gradientUnits="userSpaceOnUse">
<stop stop-color="#1D0024"/>
<stop offset="1" stop-color="#100014"/>
</linearGradient>
<linearGradient id="paint2_linear_303_529" x1="100" y1="135.333" x2="100" y2="202.872" gradientUnits="userSpaceOnUse">
<stop stop-color="#1D0024"/>
<stop offset="1" stop-color="#100014"/>
</linearGradient>
<clipPath id="clip0_303_529">
<rect width="200" height="200" rx="100" fill="white"/>
</clipPath>
</defs>
</svg>
