<svg width="225" height="71" viewBox="0 0 225 71" fill="none" xmlns="http://www.w3.org/2000/svg">
<path d="M58.5 16V55" stroke="#FFD700" stroke-width="3" stroke-linecap="round"/>
<circle cx="27" cy="38.5" r="2" stroke="#FFD700" stroke-width="2"/>
<path d="M33.5 30L36.5 34" stroke="#FFD700" stroke-width="2" stroke-linecap="round"/>
<path d="M41.5 27.5L38.5 33.5" stroke="#FFD700" stroke-width="2" stroke-linecap="round"/>
<circle cx="32" cy="28.5" r="2" stroke="#FFD700" stroke-width="2"/>
<circle cx="38" cy="35.5" r="2" stroke="#FFD700" stroke-width="2"/>
<circle cx="42" cy="25.5" r="2" stroke="#FFD700" stroke-width="2"/>
<path d="M20.5 42L25 39.5" stroke="#FFD700" stroke-width="2" stroke-linecap="round"/>
<path d="M28 36.5L31 30.5" stroke="#FFD700" stroke-width="2" stroke-linecap="round"/>
<path d="M42 42.5L46.5326 46.5793C46.7717 46.7945 46.7483 47.1762 46.4849 47.3606L42 50.5" stroke="#FFD700" stroke-width="2" stroke-linecap="round"/>
<path d="M45 46.5L20 46.5" stroke="#FFD700" stroke-width="2" stroke-linecap="round"/>
<path d="M16 24.5L20.0793 19.9674C20.2945 19.7283 20.6762 19.7517 20.8606 20.0151L24 24.5" stroke="#FFD700" stroke-width="2" stroke-linecap="round"/>
<path d="M20 21.5L20 46.5" stroke="#FFD700" stroke-width="2" stroke-linecap="round"/>
<path d="M68.5044 32.03V31.12H70.0864C70.3757 31.12 70.6277 31.0733 70.8424 30.98C71.057 30.8867 71.2204 30.7513 71.3324 30.574C71.4537 30.3967 71.5144 30.1867 71.5144 29.944C71.5144 29.5707 71.3837 29.286 71.1224 29.09C70.8704 28.894 70.525 28.796 70.0864 28.796H69.0084V35.404H70.2964C70.6324 35.404 70.9357 35.3573 71.2064 35.264C71.477 35.1613 71.687 35.0027 71.8364 34.788C71.995 34.5733 72.0744 34.298 72.0744 33.962C72.0744 33.7193 72.0277 33.514 71.9344 33.346C71.8504 33.1687 71.7244 33.024 71.5564 32.912C71.3977 32.7907 71.211 32.7067 70.9964 32.66C70.7817 32.604 70.5484 32.576 70.2964 32.576H68.5044V31.484H70.4784C70.9544 31.484 71.407 31.5353 71.8364 31.638C72.275 31.7407 72.667 31.904 73.0124 32.128C73.3577 32.3427 73.6284 32.6227 73.8244 32.968C74.0297 33.3133 74.1324 33.7287 74.1324 34.214C74.1324 34.858 73.9784 35.3853 73.6704 35.796C73.3717 36.2067 72.947 36.51 72.3964 36.706C71.8457 36.902 71.2064 37 70.4784 37H67.0064V27.2H70.2684C70.9217 27.2 71.4957 27.2933 71.9904 27.48C72.485 27.6573 72.8724 27.928 73.1524 28.292C73.4324 28.656 73.5724 29.118 73.5724 29.678C73.5724 30.1727 73.4324 30.5973 73.1524 30.952C72.8724 31.3067 72.485 31.5773 71.9904 31.764C71.4957 31.9413 70.9217 32.03 70.2684 32.03H68.5044ZM75.8384 27.2H77.8684V37H75.8384V27.2ZM79.617 29.006V27.2H87.051L82.249 35.25H86.617V37H79.071L83.817 29.006H79.617ZM87.7647 29.006V27.2H95.0447V29.006H92.3987V37H90.3967V29.006H87.7647ZM98.4082 32.436H100.522L103.714 37H101.348L98.4082 32.436ZM96.1822 27.2H98.1842V37H96.1822V27.2ZM97.4002 28.908V27.2H99.4722C100.247 27.2 100.905 27.3307 101.446 27.592C101.987 27.8533 102.403 28.2173 102.692 28.684C102.981 29.1507 103.126 29.6967 103.126 30.322C103.126 30.938 102.981 31.484 102.692 31.96C102.403 32.4267 101.987 32.7907 101.446 33.052C100.905 33.3133 100.247 33.444 99.4722 33.444H97.4002V31.848H99.3462C99.7008 31.848 100.004 31.792 100.256 31.68C100.517 31.5587 100.718 31.3907 100.858 31.176C100.998 30.952 101.068 30.686 101.068 30.378C101.068 30.07 100.998 29.8087 100.858 29.594C100.718 29.37 100.517 29.202 100.256 29.09C100.004 28.9687 99.7008 28.908 99.3462 28.908H97.4002ZM106.152 37V35.306H111.094V37H106.152ZM106.152 28.894V27.2H111.094V28.894H106.152ZM106.152 32.632V30.966H110.814V32.632H106.152ZM104.864 27.2H106.796V37H104.864V27.2ZM120.039 27.2H121.971V37.49L114.999 30.924V37H113.067V26.71L120.039 33.276V27.2ZM124.1 27.2H126.144V37H124.1V27.2ZM127.432 37H125.388V35.18H127.362C127.791 35.18 128.197 35.124 128.58 35.012C128.963 34.8907 129.299 34.704 129.588 34.452C129.877 34.2 130.101 33.8827 130.26 33.5C130.428 33.108 130.512 32.6413 130.512 32.1C130.512 31.5587 130.428 31.0967 130.26 30.714C130.101 30.322 129.877 30 129.588 29.748C129.299 29.496 128.963 29.314 128.58 29.202C128.197 29.0807 127.791 29.02 127.362 29.02H125.388V27.2H127.432C128.459 27.2 129.355 27.4007 130.12 27.802C130.895 28.2033 131.497 28.7727 131.926 29.51C132.355 30.238 132.57 31.1013 132.57 32.1C132.57 33.0987 132.355 33.9667 131.926 34.704C131.497 35.432 130.895 35.9967 130.12 36.398C129.355 36.7993 128.459 37 127.432 37Z" fill="#FFD700"/>
<path d="M66.6524 45.65C66.7444 45.81 66.8424 45.952 66.9464 46.076C67.0544 46.196 67.1724 46.29 67.3004 46.358C67.4284 46.422 67.5724 46.454 67.7324 46.454C67.9244 46.454 68.0804 46.402 68.2004 46.298C68.3204 46.194 68.3804 46.06 68.3804 45.896C68.3804 45.74 68.3424 45.616 68.2664 45.524C68.1904 45.428 68.0844 45.348 67.9484 45.284C67.8164 45.216 67.6624 45.15 67.4864 45.086C67.3824 45.05 67.2664 45.002 67.1384 44.942C67.0104 44.878 66.8884 44.8 66.7724 44.708C66.6564 44.612 66.5604 44.496 66.4844 44.36C66.4084 44.22 66.3704 44.052 66.3704 43.856C66.3704 43.632 66.4284 43.436 66.5444 43.268C66.6604 43.096 66.8164 42.964 67.0124 42.872C67.2124 42.776 67.4384 42.728 67.6904 42.728C67.9384 42.728 68.1544 42.772 68.3384 42.86C68.5224 42.948 68.6764 43.06 68.8004 43.196C68.9284 43.332 69.0284 43.474 69.1004 43.622L68.5244 43.946C68.4724 43.842 68.4064 43.746 68.3264 43.658C68.2464 43.566 68.1524 43.494 68.0444 43.442C67.9404 43.386 67.8184 43.358 67.6784 43.358C67.4824 43.358 67.3384 43.404 67.2464 43.496C67.1544 43.584 67.1084 43.688 67.1084 43.808C67.1084 43.916 67.1404 44.014 67.2044 44.102C67.2724 44.186 67.3764 44.266 67.5164 44.342C67.6564 44.418 67.8384 44.496 68.0624 44.576C68.1864 44.62 68.3104 44.676 68.4344 44.744C68.5624 44.812 68.6784 44.898 68.7824 45.002C68.8864 45.102 68.9684 45.22 69.0284 45.356C69.0924 45.492 69.1244 45.652 69.1244 45.836C69.1244 46.032 69.0864 46.208 69.0104 46.364C68.9344 46.52 68.8304 46.652 68.6984 46.76C68.5664 46.864 68.4164 46.944 68.2484 47C68.0844 47.06 67.9124 47.09 67.7324 47.09C67.4844 47.09 67.2544 47.042 67.0424 46.946C66.8344 46.846 66.6524 46.714 66.4964 46.55C66.3404 46.386 66.2164 46.208 66.1244 46.016L66.6524 45.65ZM69.911 43.454V42.8H72.839V43.454H71.729V47H71.015V43.454H69.911ZM73.7408 45.92L73.8728 45.32H75.8228L75.9608 45.92H73.7408ZM74.8388 43.988L74.1788 45.53L74.1668 45.686L73.5848 47H72.7868L74.8388 42.566L76.8908 47H76.0928L75.5228 45.722L75.5048 45.548L74.8388 43.988ZM79.7475 42.8H80.5575L79.1295 45.23V47H78.4095V45.236L76.9875 42.8H77.7915L78.7695 44.6L79.7475 42.8ZM84.3038 45.92L84.4358 45.32H86.3858L86.5238 45.92H84.3038ZM85.4018 43.988L84.7418 45.53L84.7298 45.686L84.1478 47H83.3498L85.4018 42.566L87.4538 47H86.6558L86.0858 45.722L86.0678 45.548L85.4018 43.988ZM88.7044 45.074V44.42H91.6984V45.074H88.7044ZM91.2424 42.8H91.9504V47H91.2424V42.8ZM88.4224 42.8H89.1304V47H88.4224V42.8ZM93.8053 47V46.376H95.9233V47H93.8053ZM93.8053 43.424V42.8H95.9233V43.424H93.8053ZM93.8053 45.056V44.444H95.8033V45.056H93.8053ZM93.3673 42.8H94.0633V47H93.3673V42.8ZM97.779 45.92L97.911 45.32H99.861L99.999 45.92H97.779ZM98.877 43.988L98.217 45.53L98.205 45.686L97.623 47H96.825L98.877 42.566L100.929 47H100.131L99.561 45.722L99.543 45.548L98.877 43.988ZM101.898 42.8H102.618V47H101.898V42.8ZM103.254 47H102.336V46.334H103.236C103.444 46.334 103.636 46.304 103.812 46.244C103.988 46.184 104.14 46.094 104.268 45.974C104.4 45.854 104.502 45.704 104.574 45.524C104.65 45.344 104.688 45.136 104.688 44.9C104.688 44.664 104.65 44.456 104.574 44.276C104.502 44.096 104.4 43.946 104.268 43.826C104.14 43.706 103.988 43.616 103.812 43.556C103.636 43.496 103.444 43.466 103.236 43.466H102.336V42.8H103.254C103.682 42.8 104.058 42.888 104.382 43.064C104.706 43.236 104.958 43.48 105.138 43.796C105.322 44.108 105.414 44.476 105.414 44.9C105.414 45.324 105.322 45.694 105.138 46.01C104.958 46.322 104.706 46.566 104.382 46.742C104.058 46.914 103.682 47 103.254 47ZM108.863 42.8H109.577V47H108.863V42.8ZM114.062 42.8H114.758V47.21L111.692 44.18V47H110.996V42.59L114.062 45.62V42.8ZM118.028 43.454V42.8H120.956V43.454H119.846V47H119.132V43.454H118.028ZM122.233 45.074V44.42H125.227V45.074H122.233ZM124.771 42.8H125.479V47H124.771V42.8ZM121.951 42.8H122.659V47H121.951V42.8ZM127.334 47V46.376H129.452V47H127.334ZM127.334 43.424V42.8H129.452V43.424H127.334ZM127.334 45.056V44.444H129.332V45.056H127.334ZM126.896 42.8H127.592V47H126.896V42.8ZM133.623 44.834V44.486H134.301C134.433 44.486 134.549 44.464 134.649 44.42C134.749 44.376 134.827 44.314 134.883 44.234C134.939 44.15 134.967 44.05 134.967 43.934C134.967 43.758 134.905 43.622 134.781 43.526C134.657 43.43 134.497 43.382 134.301 43.382H133.791V46.418H134.379C134.539 46.418 134.681 46.392 134.805 46.34C134.929 46.288 135.027 46.21 135.099 46.106C135.171 46.002 135.207 45.872 135.207 45.716C135.207 45.604 135.185 45.506 135.141 45.422C135.101 45.334 135.043 45.262 134.967 45.206C134.895 45.146 134.809 45.104 134.709 45.08C134.609 45.052 134.499 45.038 134.379 45.038H133.623V44.648H134.421C134.625 44.648 134.817 44.67 134.997 44.714C135.177 44.758 135.337 44.826 135.477 44.918C135.621 45.01 135.733 45.128 135.813 45.272C135.893 45.416 135.933 45.588 135.933 45.788C135.933 46.064 135.867 46.292 135.735 46.472C135.607 46.652 135.429 46.786 135.201 46.874C134.977 46.958 134.717 47 134.421 47H133.083V42.8H134.349C134.613 42.8 134.845 42.838 135.045 42.914C135.249 42.99 135.407 43.106 135.519 43.262C135.635 43.418 135.693 43.616 135.693 43.856C135.693 44.064 135.635 44.242 135.519 44.39C135.407 44.534 135.249 44.644 135.045 44.72C134.845 44.796 134.613 44.834 134.349 44.834H133.623ZM137.13 42.8H137.838V45.59C137.838 45.85 137.906 46.06 138.042 46.22C138.182 46.376 138.388 46.454 138.66 46.454C138.928 46.454 139.132 46.376 139.272 46.22C139.412 46.06 139.482 45.85 139.482 45.59V42.8H140.19V45.62C140.19 45.852 140.152 46.06 140.076 46.244C140.004 46.424 139.9 46.578 139.764 46.706C139.628 46.834 139.466 46.932 139.278 47C139.09 47.068 138.884 47.102 138.66 47.102C138.436 47.102 138.23 47.068 138.042 47C137.854 46.932 137.69 46.834 137.55 46.706C137.414 46.578 137.31 46.424 137.238 46.244C137.166 46.06 137.13 45.852 137.13 45.62V42.8ZM141.854 45.65C141.946 45.81 142.044 45.952 142.148 46.076C142.256 46.196 142.374 46.29 142.502 46.358C142.63 46.422 142.774 46.454 142.934 46.454C143.126 46.454 143.282 46.402 143.402 46.298C143.522 46.194 143.582 46.06 143.582 45.896C143.582 45.74 143.544 45.616 143.468 45.524C143.392 45.428 143.286 45.348 143.15 45.284C143.018 45.216 142.864 45.15 142.688 45.086C142.584 45.05 142.468 45.002 142.34 44.942C142.212 44.878 142.09 44.8 141.974 44.708C141.858 44.612 141.762 44.496 141.686 44.36C141.61 44.22 141.572 44.052 141.572 43.856C141.572 43.632 141.63 43.436 141.746 43.268C141.862 43.096 142.018 42.964 142.214 42.872C142.414 42.776 142.64 42.728 142.892 42.728C143.14 42.728 143.356 42.772 143.54 42.86C143.724 42.948 143.878 43.06 144.002 43.196C144.13 43.332 144.23 43.474 144.302 43.622L143.726 43.946C143.674 43.842 143.608 43.746 143.528 43.658C143.448 43.566 143.354 43.494 143.246 43.442C143.142 43.386 143.02 43.358 142.88 43.358C142.684 43.358 142.54 43.404 142.448 43.496C142.356 43.584 142.31 43.688 142.31 43.808C142.31 43.916 142.342 44.014 142.406 44.102C142.474 44.186 142.578 44.266 142.718 44.342C142.858 44.418 143.04 44.496 143.264 44.576C143.388 44.62 143.512 44.676 143.636 44.744C143.764 44.812 143.88 44.898 143.984 45.002C144.088 45.102 144.17 45.22 144.23 45.356C144.294 45.492 144.326 45.652 144.326 45.836C144.326 46.032 144.288 46.208 144.212 46.364C144.136 46.52 144.032 46.652 143.9 46.76C143.768 46.864 143.618 46.944 143.45 47C143.286 47.06 143.114 47.09 142.934 47.09C142.686 47.09 142.456 47.042 142.244 46.946C142.036 46.846 141.854 46.714 141.698 46.55C141.542 46.386 141.418 46.208 141.326 46.016L141.854 45.65ZM145.533 42.8H146.247V47H145.533V42.8ZM150.731 42.8H151.427V47.21L148.361 44.18V47H147.665V42.59L150.731 45.62V42.8ZM153.276 47V46.376H155.394V47H153.276ZM153.276 43.424V42.8H155.394V43.424H153.276ZM153.276 45.056V44.444H155.274V45.056H153.276ZM152.838 42.8H153.534V47H152.838V42.8ZM157.022 45.65C157.114 45.81 157.212 45.952 157.316 46.076C157.424 46.196 157.542 46.29 157.67 46.358C157.798 46.422 157.942 46.454 158.102 46.454C158.294 46.454 158.45 46.402 158.57 46.298C158.69 46.194 158.75 46.06 158.75 45.896C158.75 45.74 158.712 45.616 158.636 45.524C158.56 45.428 158.454 45.348 158.318 45.284C158.186 45.216 158.032 45.15 157.856 45.086C157.752 45.05 157.636 45.002 157.508 44.942C157.38 44.878 157.258 44.8 157.142 44.708C157.026 44.612 156.93 44.496 156.854 44.36C156.778 44.22 156.74 44.052 156.74 43.856C156.74 43.632 156.798 43.436 156.914 43.268C157.03 43.096 157.186 42.964 157.382 42.872C157.582 42.776 157.808 42.728 158.06 42.728C158.308 42.728 158.524 42.772 158.708 42.86C158.892 42.948 159.046 43.06 159.17 43.196C159.298 43.332 159.398 43.474 159.47 43.622L158.894 43.946C158.842 43.842 158.776 43.746 158.696 43.658C158.616 43.566 158.522 43.494 158.414 43.442C158.31 43.386 158.188 43.358 158.048 43.358C157.852 43.358 157.708 43.404 157.616 43.496C157.524 43.584 157.478 43.688 157.478 43.808C157.478 43.916 157.51 44.014 157.574 44.102C157.642 44.186 157.746 44.266 157.886 44.342C158.026 44.418 158.208 44.496 158.432 44.576C158.556 44.62 158.68 44.676 158.804 44.744C158.932 44.812 159.048 44.898 159.152 45.002C159.256 45.102 159.338 45.22 159.398 45.356C159.462 45.492 159.494 45.652 159.494 45.836C159.494 46.032 159.456 46.208 159.38 46.364C159.304 46.52 159.2 46.652 159.068 46.76C158.936 46.864 158.786 46.944 158.618 47C158.454 47.06 158.282 47.09 158.102 47.09C157.854 47.09 157.624 47.042 157.412 46.946C157.204 46.846 157.022 46.714 156.866 46.55C156.71 46.386 156.586 46.208 156.494 46.016L157.022 45.65ZM160.977 45.65C161.069 45.81 161.167 45.952 161.271 46.076C161.379 46.196 161.497 46.29 161.625 46.358C161.753 46.422 161.897 46.454 162.057 46.454C162.249 46.454 162.405 46.402 162.525 46.298C162.645 46.194 162.705 46.06 162.705 45.896C162.705 45.74 162.667 45.616 162.591 45.524C162.515 45.428 162.409 45.348 162.273 45.284C162.141 45.216 161.987 45.15 161.811 45.086C161.707 45.05 161.591 45.002 161.463 44.942C161.335 44.878 161.213 44.8 161.097 44.708C160.981 44.612 160.885 44.496 160.809 44.36C160.733 44.22 160.695 44.052 160.695 43.856C160.695 43.632 160.753 43.436 160.869 43.268C160.985 43.096 161.141 42.964 161.337 42.872C161.537 42.776 161.763 42.728 162.015 42.728C162.263 42.728 162.479 42.772 162.663 42.86C162.847 42.948 163.001 43.06 163.125 43.196C163.253 43.332 163.353 43.474 163.425 43.622L162.849 43.946C162.797 43.842 162.731 43.746 162.651 43.658C162.571 43.566 162.477 43.494 162.369 43.442C162.265 43.386 162.143 43.358 162.003 43.358C161.807 43.358 161.663 43.404 161.571 43.496C161.479 43.584 161.433 43.688 161.433 43.808C161.433 43.916 161.465 44.014 161.529 44.102C161.597 44.186 161.701 44.266 161.841 44.342C161.981 44.418 162.163 44.496 162.387 44.576C162.511 44.62 162.635 44.676 162.759 44.744C162.887 44.812 163.003 44.898 163.107 45.002C163.211 45.102 163.293 45.22 163.353 45.356C163.417 45.492 163.449 45.652 163.449 45.836C163.449 46.032 163.411 46.208 163.335 46.364C163.259 46.52 163.155 46.652 163.023 46.76C162.891 46.864 162.741 46.944 162.573 47C162.409 47.06 162.237 47.09 162.057 47.09C161.809 47.09 161.579 47.042 161.367 46.946C161.159 46.846 160.977 46.714 160.821 46.55C160.665 46.386 160.541 46.208 160.449 46.016L160.977 45.65ZM168.932 45.404V44.804H170.954C170.962 45.112 170.922 45.404 170.834 45.68C170.746 45.952 170.614 46.194 170.438 46.406C170.262 46.618 170.042 46.786 169.778 46.91C169.518 47.03 169.222 47.09 168.89 47.09C168.574 47.09 168.282 47.038 168.014 46.934C167.746 46.826 167.512 46.674 167.312 46.478C167.116 46.282 166.964 46.05 166.856 45.782C166.748 45.514 166.694 45.22 166.694 44.9C166.694 44.58 166.748 44.288 166.856 44.024C166.968 43.756 167.122 43.526 167.318 43.334C167.518 43.138 167.752 42.988 168.02 42.884C168.292 42.78 168.586 42.728 168.902 42.728C169.178 42.728 169.428 42.766 169.652 42.842C169.876 42.914 170.076 43.02 170.252 43.16C170.432 43.296 170.584 43.462 170.708 43.658L170.132 44.042C170.016 43.842 169.854 43.682 169.646 43.562C169.442 43.442 169.194 43.382 168.902 43.382C168.63 43.382 168.384 43.446 168.164 43.574C167.944 43.698 167.768 43.874 167.636 44.102C167.504 44.326 167.438 44.592 167.438 44.9C167.438 45.204 167.502 45.472 167.63 45.704C167.762 45.932 167.938 46.11 168.158 46.238C168.378 46.366 168.626 46.43 168.902 46.43C169.09 46.43 169.258 46.404 169.406 46.352C169.554 46.3 169.682 46.226 169.79 46.13C169.898 46.034 169.988 45.924 170.06 45.8C170.132 45.676 170.186 45.544 170.222 45.404H168.932ZM172.483 45.92L172.615 45.32H174.565L174.703 45.92H172.483ZM173.581 43.988L172.921 45.53L172.909 45.686L172.327 47H171.529L173.581 42.566L175.633 47H174.835L174.265 45.722L174.247 45.548L173.581 43.988ZM177.381 44.444L177.093 47H176.361L176.937 42.59L178.659 45.44L180.387 42.59L180.963 47H180.231L179.937 44.444L178.659 46.61L177.381 44.444ZM182.57 47V46.376H184.688V47H182.57ZM182.57 43.424V42.8H184.688V43.424H182.57ZM182.57 45.056V44.444H184.568V45.056H182.57ZM182.132 42.8H182.828V47H182.132V42.8Z" fill="#FFD700"/>
<path d="M139.312 28.95V27.2H143.694V28.95H139.312ZM139.312 32.814V31.148H143.554V32.814H139.312ZM138.024 27.2H139.956V37H138.024V27.2ZM147.084 32.1C147.084 32.7253 147.214 33.2807 147.476 33.766C147.737 34.2513 148.096 34.634 148.554 34.914C149.011 35.194 149.543 35.334 150.15 35.334C150.756 35.334 151.288 35.194 151.746 34.914C152.203 34.634 152.558 34.2513 152.81 33.766C153.071 33.2807 153.202 32.7253 153.202 32.1C153.202 31.4747 153.076 30.9193 152.824 30.434C152.572 29.9487 152.217 29.566 151.76 29.286C151.302 29.006 150.766 28.866 150.15 28.866C149.543 28.866 149.011 29.006 148.554 29.286C148.096 29.566 147.737 29.9487 147.476 30.434C147.214 30.9193 147.084 31.4747 147.084 32.1ZM144.97 32.1C144.97 31.3533 145.1 30.672 145.362 30.056C145.623 29.4307 145.987 28.8893 146.454 28.432C146.92 27.9747 147.466 27.6247 148.092 27.382C148.726 27.13 149.412 27.004 150.15 27.004C150.896 27.004 151.582 27.13 152.208 27.382C152.833 27.6247 153.379 27.9747 153.846 28.432C154.322 28.8893 154.686 29.4307 154.938 30.056C155.199 30.672 155.33 31.3533 155.33 32.1C155.33 32.8373 155.199 33.5233 154.938 34.158C154.686 34.7833 154.326 35.3293 153.86 35.796C153.402 36.2627 152.856 36.6267 152.222 36.888C151.596 37.14 150.906 37.266 150.15 37.266C149.394 37.266 148.698 37.14 148.064 36.888C147.438 36.6267 146.892 36.2627 146.426 35.796C145.959 35.3293 145.6 34.7833 145.348 34.158C145.096 33.5233 144.97 32.8373 144.97 32.1ZM159.103 32.436H161.217L164.409 37H162.043L159.103 32.436ZM156.877 27.2H158.879V37H156.877V27.2ZM158.095 28.908V27.2H160.167C160.942 27.2 161.6 27.3307 162.141 27.592C162.683 27.8533 163.098 28.2173 163.387 28.684C163.677 29.1507 163.821 29.6967 163.821 30.322C163.821 30.938 163.677 31.484 163.387 31.96C163.098 32.4267 162.683 32.7907 162.141 33.052C161.6 33.3133 160.942 33.444 160.167 33.444H158.095V31.848H160.041C160.396 31.848 160.699 31.792 160.951 31.68C161.213 31.5587 161.413 31.3907 161.553 31.176C161.693 30.952 161.763 30.686 161.763 30.378C161.763 30.07 161.693 29.8087 161.553 29.594C161.413 29.37 161.213 29.202 160.951 29.09C160.699 28.9687 160.396 28.908 160.041 28.908H158.095ZM166.847 37V35.306H171.789V37H166.847ZM166.847 28.894V27.2H171.789V28.894H166.847ZM166.847 32.632V30.966H171.509V32.632H166.847ZM165.559 27.2H167.491V37H165.559V27.2ZM175.372 32.1C175.372 32.744 175.517 33.3087 175.806 33.794C176.105 34.27 176.492 34.6387 176.968 34.9C177.444 35.152 177.962 35.278 178.522 35.278C178.989 35.278 179.404 35.2173 179.768 35.096C180.132 34.9747 180.459 34.8113 180.748 34.606C181.047 34.4007 181.304 34.1767 181.518 33.934V36.188C181.117 36.5053 180.678 36.7527 180.202 36.93C179.736 37.1073 179.143 37.196 178.424 37.196C177.678 37.196 176.982 37.0747 176.338 36.832C175.704 36.5893 175.148 36.2393 174.672 35.782C174.206 35.3247 173.842 34.788 173.58 34.172C173.328 33.5467 173.202 32.856 173.202 32.1C173.202 31.344 173.328 30.658 173.58 30.042C173.842 29.4167 174.206 28.8753 174.672 28.418C175.148 27.9607 175.704 27.6107 176.338 27.368C176.982 27.1253 177.678 27.004 178.424 27.004C179.143 27.004 179.736 27.0927 180.202 27.27C180.678 27.4473 181.117 27.6947 181.518 28.012V30.266C181.304 30.0233 181.047 29.7993 180.748 29.594C180.459 29.3887 180.132 29.2253 179.768 29.104C179.404 28.9827 178.989 28.922 178.522 28.922C177.962 28.922 177.444 29.0527 176.968 29.314C176.492 29.566 176.105 29.93 175.806 30.406C175.517 30.882 175.372 31.4467 175.372 32.1ZM184.663 34.774L184.901 33.192H189.605L189.843 34.774H184.663ZM187.225 30.378L185.755 33.752L185.797 34.2L184.509 37H182.255L187.225 26.626L192.195 37H189.927L188.667 34.284L188.695 33.78L187.225 30.378ZM194.112 33.71C194.318 34.074 194.542 34.3913 194.784 34.662C195.036 34.9327 195.312 35.1427 195.61 35.292C195.909 35.4413 196.231 35.516 196.576 35.516C196.978 35.516 197.304 35.4133 197.556 35.208C197.808 35.0027 197.934 34.7227 197.934 34.368C197.934 34.06 197.855 33.8127 197.696 33.626C197.547 33.4393 197.318 33.276 197.01 33.136C196.712 32.9867 196.343 32.828 195.904 32.66C195.671 32.576 195.4 32.464 195.092 32.324C194.794 32.1747 194.509 31.988 194.238 31.764C193.968 31.5307 193.744 31.2507 193.566 30.924C193.389 30.588 193.3 30.1867 193.3 29.72C193.3 29.16 193.44 28.6793 193.72 28.278C194.01 27.8673 194.397 27.5547 194.882 27.34C195.377 27.116 195.928 27.004 196.534 27.004C197.16 27.004 197.696 27.1113 198.144 27.326C198.602 27.5313 198.98 27.7973 199.278 28.124C199.586 28.4413 199.824 28.7727 199.992 29.118L198.424 29.986C198.294 29.7527 198.135 29.5427 197.948 29.356C197.771 29.16 197.566 29.006 197.332 28.894C197.099 28.7727 196.833 28.712 196.534 28.712C196.142 28.712 195.848 28.8053 195.652 28.992C195.456 29.1693 195.358 29.3793 195.358 29.622C195.358 29.8647 195.438 30.0793 195.596 30.266C195.755 30.4433 195.998 30.616 196.324 30.784C196.651 30.9427 197.062 31.106 197.556 31.274C197.874 31.386 198.177 31.526 198.466 31.694C198.765 31.862 199.031 32.0673 199.264 32.31C199.507 32.5433 199.694 32.8233 199.824 33.15C199.964 33.4673 200.034 33.836 200.034 34.256C200.034 34.732 199.941 35.1567 199.754 35.53C199.568 35.9033 199.311 36.2207 198.984 36.482C198.658 36.734 198.289 36.9253 197.878 37.056C197.477 37.196 197.052 37.266 196.604 37.266C196.007 37.266 195.447 37.154 194.924 36.93C194.411 36.6967 193.963 36.384 193.58 35.992C193.198 35.6 192.899 35.1753 192.684 34.718L194.112 33.71ZM200.687 29.006V27.2H207.967V29.006H205.321V37H203.319V29.006H200.687Z" fill="#FFD700"/>
</svg>
