<svg xmlns="http://www.w3.org/2000/svg" width="430" height="430" style="width:100%;height:100%;transform:translate3d(0,0,0);content-visibility:visible" viewBox="0 0 430 430"><defs><clipPath id="i"><path d="M0 0h430v430H0z"/></clipPath><clipPath id="t"><path d="M0 0h430v430H0z"/></clipPath><clipPath id="s"><path d="M0 0h430v430H0z"/></clipPath><clipPath id="r"><path d="M0 0h430v430H0z"/></clipPath><clipPath id="q"><path d="M0 0h430v430H0z"/></clipPath><clipPath id="p"><path d="M0 0h430v430H0z"/></clipPath><clipPath id="m"><path d="M0 0h430v430H0z"/></clipPath><clipPath id="j"><path d="M0 0h430v430H0z"/></clipPath><filter id="a" width="100%" height="100%" x="0%" y="0%" filterUnits="objectBoundingBox"><feComponentTransfer in="SourceGraphic"><feFuncA tableValues="1.0 0.0" type="table"/></feComponentTransfer></filter><filter id="c" width="100%" height="100%" x="0%" y="0%" filterUnits="objectBoundingBox"><feComponentTransfer in="SourceGraphic"><feFuncA tableValues="1.0 0.0" type="table"/></feComponentTransfer></filter><filter id="e" width="100%" height="100%" x="0%" y="0%" filterUnits="objectBoundingBox"><feComponentTransfer in="SourceGraphic"><feFuncA tableValues="1.0 0.0" type="table"/></feComponentTransfer></filter><filter id="g" width="100%" height="100%" x="0%" y="0%" filterUnits="objectBoundingBox"><feComponentTransfer in="SourceGraphic"><feFuncA tableValues="1.0 0.0" type="table"/></feComponentTransfer></filter><path id="b" fill-opacity="0" stroke-linecap="round" style="display:none"/><path id="d" fill-opacity="0" stroke-linecap="round" style="display:none"/><path id="f" fill-opacity="0" stroke-linecap="round" style="display:none"/><path id="h" fill-opacity="0" stroke-linecap="round" style="display:none"/><mask id="o" mask-type="alpha"><g filter="url(#a)"><path fill="#fff" d="M0 0h430v430H0z" opacity="0"/><use xmlns:ns1="http://www.w3.org/1999/xlink" ns1:href="#b"/></g></mask><mask id="n" mask-type="alpha"><g filter="url(#c)"><path fill="#fff" d="M0 0h430v430H0z" opacity="0"/><use xmlns:ns2="http://www.w3.org/1999/xlink" ns2:href="#d"/></g></mask><mask id="l" mask-type="alpha"><g filter="url(#e)"><path fill="#fff" d="M0 0h430v430H0z" opacity="0"/><use xmlns:ns3="http://www.w3.org/1999/xlink" ns3:href="#f"/></g></mask><mask id="k" mask-type="alpha"><g filter="url(#g)"><path fill="#fff" d="M0 0h430v430H0z" opacity="0"/><use xmlns:ns4="http://www.w3.org/1999/xlink" ns4:href="#h"/></g></mask></defs><g clip-path="url(#i)"><g clip-path="url(#j)" style="display:none"><g mask="url(#k)" style="display:none"><path fill="none" class="secondary"/></g><g mask="url(#l)" style="display:none"><path fill="none" class="primary"/></g><path fill="none" class="secondary" style="display:none"/></g><g clip-path="url(#m)" style="display:none"><g mask="url(#n)" style="display:none"><path fill="none" class="secondary"/></g><g mask="url(#o)" style="display:none"><path fill="none" class="primary"/></g><path fill="none" class="secondary" style="display:none"/></g><g fill="none" clip-path="url(#p)" style="display:none"><path class="secondary" style="display:none"/><path class="primary" style="display:none"/><path class="primary" style="display:none"/><path class="primary" style="display:none"/></g><g fill="none" stroke="#232323" stroke-linecap="round" stroke-linejoin="round" stroke-width="18" clip-path="url(#q)" style="display:block"><path d="M0 0" class="secondary" style="display:block" transform="translate(215 160.499)"/><path d="m-60.974-17.088-16.041-44.067m-37.552 75.044-30.166-35.941m-9.668 83.345L-195 37.85m349.4 23.435L195 37.849m-80.432-23.961 30.165-35.94m-83.758 4.963 16.041-44.065M0-74.732v46.944" class="primary" style="display:block" transform="matrix(1 0 0 -1 215 243.964)"/><path d="M0-120.658c-84.003 0-156.476 49.36-190 120.658C-156.476 71.298-84.002 120.658 0 120.658c84.003 0 156.476-49.36 190-120.658C156.476-71.298 84.002-120.658 0-120.658" class="primary" style="display:none" transform="translate(215 215)"/><path d="M161 9C132.127 69.351 70.987 111-.348 111S-133.674 68.508-161.698 9.001" class="primary" style="display:block" transform="translate(215 160.5)"/></g><g fill="none" clip-path="url(#r)" style="display:none"><path class="secondary" style="display:none"/><path class="primary" style="display:none"/></g><g fill="none" clip-path="url(#s)" style="display:none"><path class="secondary" style="display:none"/><path class="primary" style="display:none"/></g><g fill="none" clip-path="url(#t)" style="display:none"><path class="secondary" style="display:none"/><path class="primary" style="display:none"/><path class="primary" style="display:none"/></g></g></svg>