<svg width="33" height="34" viewBox="0 0 33 34" fill="none" xmlns="http://www.w3.org/2000/svg">
<circle cx="12" cy="20.5" r="2" stroke="#FFD700" stroke-width="2"/>
<path d="M18.5 12L21.5 16" stroke="#FFD700" stroke-width="2" stroke-linecap="round"/>
<path d="M26.5 9.5L23.5 15.5" stroke="#FFD700" stroke-width="2" stroke-linecap="round"/>
<circle cx="17" cy="10.5" r="2" stroke="#FFD700" stroke-width="2"/>
<circle cx="23" cy="17.5" r="2" stroke="#FFD700" stroke-width="2"/>
<circle cx="27" cy="7.5" r="2" stroke="#FFD700" stroke-width="2"/>
<path d="M5.5 24L10 21.5" stroke="#FFD700" stroke-width="2" stroke-linecap="round"/>
<path d="M13 18.5L16 12.5" stroke="#FFD700" stroke-width="2" stroke-linecap="round"/>
<path d="M27 24.5L31.5326 28.5793C31.7717 28.7945 31.7483 29.1762 31.4849 29.3606L27 32.5" stroke="#FFD700" stroke-width="2" stroke-linecap="round"/>
<path d="M30 28.5L5 28.5" stroke="#FFD700" stroke-width="2" stroke-linecap="round"/>
<path d="M1 6.5L5.07934 1.9674C5.2945 1.72833 5.67616 1.75165 5.8606 2.01515L9 6.5" stroke="#FFD700" stroke-width="2" stroke-linecap="round"/>
<path d="M5 3.5L5 28.5" stroke="#FFD700" stroke-width="2" stroke-linecap="round"/>
</svg>
